<svg id="svg" version="1.1" xmlns="http://www.w3.org/2000/svg" xmlns:xlink="http://www.w3.org/1999/xlink" width="400" height="400" viewBox="0, 0, 400,400"><g id="svgg"><path id="path0" d="M24.343 117.868 C 24.109 118.151,23.890 118.832,23.858 119.381 C 23.804 120.313,22.208 121.163,21.070 120.866 C 20.889 120.819,20.847 120.952,20.977 121.162 C 21.107 121.373,21.047 121.647,20.844 121.773 C 20.641 121.898,20.565 122.343,20.674 122.762 C 20.878 123.542,19.596 124.292,18.849 123.830 C 18.459 123.589,17.440 124.637,17.367 125.354 C 17.342 125.599,17.294 126.130,17.261 126.533 C 17.227 126.937,16.981 127.194,16.714 127.105 C 15.991 126.864,14.507 128.493,14.714 129.300 C 14.813 129.685,14.737 130.015,14.547 130.033 C 12.665 130.214,12.209 130.373,11.742 131.011 C 11.076 131.922,10.979 165.200,11.643 165.200 C 11.858 165.200,11.982 165.511,11.918 165.891 C 11.852 166.276,12.065 166.602,12.400 166.630 C 12.730 166.656,13.516 166.706,14.147 166.739 C 15.095 166.789,15.256 166.942,15.078 167.623 C 14.898 168.312,14.959 168.366,15.454 167.955 C 15.928 167.562,16.021 167.573,15.923 168.014 C 15.855 168.316,16.053 168.572,16.362 168.582 C 16.942 168.601,17.144 169.197,17.385 171.600 C 17.462 172.370,17.563 173.090,17.610 173.200 C 17.657 173.310,17.658 173.580,17.614 173.800 C 17.570 174.020,17.645 174.089,17.781 173.953 C 17.917 173.817,18.577 174.218,19.248 174.845 C 20.314 175.840,20.642 176.614,20.878 178.682 C 20.909 178.948,21.083 179.072,21.267 178.959 C 21.450 178.845,21.600 178.938,21.600 179.164 C 21.600 179.390,21.852 179.478,22.159 179.360 C 22.466 179.242,22.961 179.434,23.259 179.787 C 23.557 180.139,24.031 180.685,24.314 181.000 C 24.597 181.314,24.809 181.672,24.784 181.796 C 24.760 181.919,24.829 182.241,24.938 182.510 C 25.089 182.882,25.144 182.885,25.168 182.519 C 25.190 182.183,25.565 182.244,26.401 182.719 C 27.122 183.128,27.517 183.622,27.391 183.957 C 27.225 184.398,27.300 184.415,27.755 184.037 C 28.199 183.669,28.396 183.670,28.626 184.042 C 28.827 184.367,28.740 184.429,28.362 184.232 C 28.053 184.072,28.112 184.197,28.494 184.510 C 28.875 184.823,29.055 185.225,28.894 185.404 C 28.732 185.582,28.825 185.599,29.100 185.441 C 29.375 185.282,29.825 185.292,30.100 185.462 C 30.374 185.631,30.869 185.791,31.200 185.817 C 31.530 185.842,32.199 185.894,32.687 185.932 C 33.298 185.979,33.503 186.187,33.345 186.600 C 33.218 186.930,33.314 187.200,33.557 187.200 C 33.801 187.200,33.955 187.425,33.900 187.700 C 33.845 187.975,34.025 188.155,34.300 188.100 C 34.575 188.045,34.800 188.199,34.800 188.443 C 34.800 188.686,35.070 188.782,35.400 188.655 C 35.730 188.529,36.000 188.579,36.000 188.768 C 36.000 188.957,36.225 189.103,36.500 189.093 C 38.768 189.008,39.645 189.240,39.564 189.900 C 39.393 191.277,39.987 191.843,41.709 191.944 C 42.686 192.002,43.531 192.290,43.721 192.630 C 43.901 192.953,44.246 193.095,44.486 192.947 C 44.749 192.784,44.809 192.861,44.636 193.141 C 44.476 193.401,44.625 193.711,44.975 193.846 C 45.319 193.978,45.600 194.300,45.600 194.561 C 45.600 194.824,46.256 195.081,47.066 195.135 C 48.886 195.258,49.313 195.510,49.111 196.345 C 48.921 197.129,49.924 198.187,50.900 198.233 C 51.285 198.252,52.455 198.302,53.500 198.345 C 55.009 198.408,55.255 198.509,54.697 198.834 C 54.310 199.059,53.815 199.133,53.597 198.998 C 53.379 198.863,53.200 199.028,53.200 199.364 C 53.200 199.769,52.976 199.889,52.534 199.719 C 52.131 199.565,51.968 199.625,52.122 199.873 C 52.746 200.883,50.161 202.334,47.929 202.227 C 47.341 202.199,46.891 202.362,46.929 202.588 C 46.968 202.815,46.745 202.945,46.432 202.877 C 45.963 202.776,45.954 202.863,46.381 203.377 C 46.814 203.899,46.789 204.000,46.225 204.000 C 45.855 204.000,45.656 204.167,45.782 204.371 C 46.041 204.789,44.588 205.364,44.075 205.046 C 43.589 204.746,42.400 206.278,42.400 207.205 C 42.400 207.825,42.114 208.011,41.100 208.052 C 39.892 208.100,37.981 208.288,36.967 208.460 C 36.550 208.531,36.412 209.001,36.370 210.500 C 36.351 211.186,35.468 211.383,32.900 211.275 C 32.405 211.255,32.000 211.417,32.000 211.636 C 32.000 211.856,31.685 211.982,31.300 211.918 C 30.823 211.837,30.637 212.023,30.718 212.500 C 30.782 212.885,30.628 213.200,30.375 213.200 C 30.122 213.200,30.018 213.470,30.145 213.800 C 30.298 214.201,30.114 214.417,29.587 214.450 C 29.154 214.478,28.404 214.523,27.921 214.550 C 27.255 214.588,27.027 214.868,26.982 215.705 C 26.910 217.046,26.627 217.365,25.480 217.400 C 24.637 217.426,20.715 220.951,20.584 221.800 C 20.550 222.020,20.494 222.616,20.461 223.124 C 20.427 223.632,20.225 223.939,20.011 223.807 C 19.502 223.492,17.541 224.782,17.827 225.244 C 17.948 225.440,17.902 225.600,17.724 225.600 C 17.546 225.600,17.378 226.230,17.350 227.000 C 17.239 230.107,17.185 230.438,16.828 230.217 C 16.623 230.091,16.330 230.189,16.178 230.436 C 15.975 230.764,15.821 230.757,15.606 230.410 C 15.424 230.114,15.066 230.551,14.660 231.568 C 14.212 232.686,13.764 233.200,13.236 233.200 C 11.151 233.200,11.247 232.365,11.225 250.834 C 11.211 263.062,11.332 268.000,11.646 268.000 C 11.888 268.000,11.984 268.264,11.860 268.587 C 11.581 269.315,12.237 269.787,12.634 269.145 C 12.827 268.833,12.749 268.784,12.400 269.000 C 12.051 269.216,11.973 269.167,12.166 268.855 C 12.572 268.197,13.305 268.749,13.018 269.497 C 12.823 270.006,12.887 270.026,13.386 269.612 C 13.880 269.202,14.036 269.228,14.237 269.753 C 14.373 270.106,14.650 270.293,14.853 270.167 C 15.649 269.675,17.749 272.620,17.679 274.130 C 17.650 274.756,17.738 274.785,18.299 274.330 C 18.701 274.005,18.844 273.983,18.670 274.272 C 18.514 274.532,18.573 274.860,18.800 275.000 C 19.027 275.140,19.098 275.441,18.958 275.668 C 18.801 275.923,19.023 275.909,19.542 275.631 C 20.277 275.238,20.412 275.310,20.638 276.210 C 20.780 276.775,20.993 277.140,21.112 277.021 C 21.384 276.750,22.632 278.483,22.487 278.930 C 22.428 279.111,22.585 279.133,22.835 278.978 C 23.085 278.824,23.447 278.946,23.639 279.249 C 23.933 279.714,23.989 279.715,23.994 279.251 C 23.998 278.848,24.137 278.816,24.516 279.130 C 25.194 279.693,36.000 279.676,36.000 279.112 C 36.000 278.889,36.354 278.799,36.786 278.912 C 37.252 279.034,37.537 278.931,37.486 278.659 C 37.439 278.407,37.619 278.243,37.886 278.295 C 38.185 278.354,38.274 278.137,38.118 277.730 C 37.949 277.289,38.019 277.164,38.327 277.355 C 38.630 277.542,38.708 277.426,38.553 277.021 C 38.422 276.679,38.469 276.385,38.657 276.367 C 40.550 276.183,40.980 276.059,41.114 275.658 C 41.199 275.404,41.417 275.287,41.599 275.399 C 41.781 275.512,41.880 275.153,41.820 274.602 C 41.710 273.604,42.238 273.401,44.700 273.493 C 44.975 273.503,45.200 273.357,45.200 273.168 C 45.200 272.979,45.470 272.929,45.800 273.055 C 46.133 273.183,46.400 273.067,46.400 272.794 C 46.400 272.416,46.531 272.410,46.964 272.770 C 47.397 273.129,47.598 273.126,47.826 272.758 C 48.027 272.433,47.940 272.371,47.562 272.568 C 47.181 272.766,47.198 272.689,47.615 272.330 C 47.953 272.038,48.164 271.485,48.085 271.100 C 47.993 270.651,48.202 270.378,48.671 270.339 C 49.072 270.306,49.601 270.258,49.846 270.233 C 50.535 270.163,51.615 269.148,51.389 268.782 C 51.278 268.602,51.373 268.340,51.600 268.200 C 51.827 268.060,51.928 267.807,51.824 267.639 C 51.720 267.471,51.852 267.314,52.118 267.290 C 52.383 267.266,53.575 267.169,54.767 267.075 C 57.106 266.891,58.067 266.142,57.711 264.781 C 57.535 264.107,57.731 263.991,59.153 263.933 C 60.059 263.897,61.108 263.852,61.485 263.833 C 62.480 263.785,63.856 262.315,63.668 261.500 C 63.540 260.943,63.774 260.800,64.812 260.800 C 65.720 260.800,66.656 260.359,67.885 259.351 C 68.901 258.519,70.195 257.849,70.927 257.777 C 71.627 257.708,72.290 257.618,72.400 257.578 C 72.510 257.538,72.748 257.531,72.930 257.563 C 73.111 257.594,73.153 257.448,73.023 257.238 C 72.893 257.027,72.953 256.753,73.156 256.627 C 73.359 256.502,73.431 256.039,73.316 255.600 C 73.184 255.097,73.310 254.785,73.653 254.759 C 73.954 254.737,74.977 254.683,75.927 254.640 C 76.876 254.597,77.796 254.330,77.971 254.046 C 78.146 253.763,78.404 253.547,78.545 253.566 C 79.349 253.673,79.504 253.521,79.318 252.807 C 79.095 251.956,80.828 250.972,81.856 251.366 C 82.141 251.476,82.483 251.390,82.615 251.176 C 82.747 250.962,83.051 250.908,83.289 251.055 C 83.533 251.206,83.610 251.139,83.464 250.904 C 83.321 250.673,83.485 250.376,83.828 250.245 C 84.191 250.105,84.330 249.796,84.161 249.503 C 84.002 249.226,84.018 249.132,84.196 249.294 C 84.375 249.455,84.719 249.333,84.960 249.021 C 85.202 248.710,85.994 248.367,86.721 248.259 C 88.401 248.010,89.170 247.372,88.924 246.430 C 88.670 245.461,88.978 245.312,91.591 245.142 C 93.937 244.990,95.154 244.236,94.878 243.105 C 94.686 242.314,95.201 242.043,97.204 241.880 C 97.976 241.817,98.831 241.628,99.104 241.459 C 99.377 241.291,99.768 241.256,99.972 241.383 C 100.177 241.509,100.475 241.402,100.634 241.145 C 100.825 240.835,100.749 240.784,100.410 240.994 C 100.065 241.207,99.963 241.128,100.098 240.756 C 100.209 240.450,100.511 240.248,100.769 240.306 C 101.027 240.365,101.184 240.116,101.119 239.753 C 101.040 239.318,101.340 239.033,102.000 238.916 C 102.550 238.817,103.254 238.691,103.565 238.636 C 103.876 238.580,104.196 238.103,104.277 237.576 C 104.485 236.212,104.914 235.915,106.766 235.854 C 107.664 235.824,108.400 235.654,108.400 235.476 C 108.400 235.298,108.537 235.238,108.705 235.341 C 108.873 235.445,109.458 235.282,110.005 234.979 C 110.552 234.676,110.773 234.422,110.497 234.414 C 109.739 234.393,110.793 232.856,111.780 232.543 C 112.903 232.187,113.522 231.462,113.828 230.148 C 113.975 229.517,114.356 228.791,114.675 228.536 C 114.993 228.281,115.241 227.966,115.227 227.836 C 115.212 227.706,115.282 227.645,115.383 227.700 C 115.672 227.858,116.748 226.240,116.558 225.932 C 116.464 225.780,116.529 225.568,116.702 225.461 C 116.875 225.354,117.001 223.201,116.981 220.677 C 116.942 215.821,116.731 215.213,114.881 214.626 C 114.315 214.446,113.982 213.999,113.950 213.373 C 113.922 212.838,113.855 212.220,113.800 212.000 C 113.745 211.780,113.678 211.420,113.650 211.200 C 113.623 210.980,113.465 210.821,113.300 210.847 C 113.135 210.873,112.865 210.851,112.700 210.797 C 112.535 210.744,112.175 210.678,111.900 210.650 C 111.625 210.623,111.378 210.375,111.350 210.100 C 111.322 209.825,111.256 209.465,111.203 209.300 C 111.149 209.135,111.131 208.852,111.163 208.670 C 111.194 208.489,111.035 208.455,110.810 208.594 C 110.584 208.733,110.400 208.681,110.400 208.478 C 110.400 208.276,109.995 208.107,109.500 208.103 C 107.664 208.090,107.504 208.009,107.716 207.200 C 107.831 206.761,107.759 206.298,107.556 206.173 C 107.353 206.047,107.293 205.773,107.423 205.562 C 107.553 205.352,107.511 205.206,107.330 205.237 C 107.148 205.269,106.820 205.256,106.600 205.208 C 106.380 205.160,105.750 205.094,105.200 205.061 C 104.445 205.015,104.207 204.785,104.230 204.120 C 104.246 203.633,104.082 203.350,103.862 203.486 C 103.629 203.629,103.567 203.463,103.712 203.086 C 103.894 202.611,103.789 202.506,103.314 202.688 C 102.887 202.852,102.766 202.779,102.955 202.473 C 103.140 202.173,103.029 202.091,102.640 202.240 C 102.309 202.367,101.805 202.324,101.519 202.145 C 101.234 201.966,100.396 201.804,99.658 201.785 C 98.452 201.753,96.812 200.400,97.980 200.400 C 98.211 200.400,98.085 200.074,97.700 199.676 C 97.315 199.278,96.705 199.024,96.345 199.111 C 95.985 199.198,95.569 199.074,95.422 198.835 C 95.245 198.549,95.777 198.379,96.976 198.340 C 99.735 198.249,99.762 198.243,100.330 197.600 C 100.718 197.160,100.781 197.150,100.568 197.562 C 100.375 197.934,100.434 198.026,100.745 197.834 C 101.002 197.675,101.112 197.381,100.988 197.181 C 100.554 196.479,101.615 195.200,102.631 195.200 C 103.682 195.200,104.214 194.873,105.953 193.160 C 106.653 192.470,107.671 192.020,108.972 191.825 C 110.186 191.643,110.740 191.410,110.425 191.215 C 110.064 190.993,110.045 190.820,110.357 190.626 C 110.601 190.476,110.800 189.984,110.800 189.534 C 110.800 188.949,110.982 188.784,111.436 188.959 C 111.786 189.093,112.281 189.070,112.536 188.907 C 112.791 188.745,113.180 188.609,113.399 188.606 C 113.619 188.603,113.817 188.330,113.839 188.000 C 113.860 187.670,113.906 186.886,113.939 186.257 C 113.985 185.401,114.156 185.174,114.621 185.353 C 115.026 185.508,115.142 185.430,114.955 185.127 C 114.764 184.819,114.889 184.749,115.330 184.918 C 115.737 185.074,115.954 184.985,115.895 184.686 C 115.843 184.419,115.986 184.232,116.214 184.271 C 116.750 184.364,116.787 184.010,116.903 177.685 C 116.983 173.322,116.893 172.303,116.400 171.992 C 116.070 171.783,115.980 171.604,116.200 171.594 C 116.420 171.584,116.284 171.391,115.897 171.166 C 115.510 170.941,115.020 170.864,114.809 170.995 C 114.430 171.229,114.132 170.369,113.912 168.400 C 113.850 167.850,113.575 167.378,113.300 167.350 C 113.025 167.322,112.387 167.278,111.883 167.250 C 111.212 167.213,110.863 166.850,110.583 165.900 C 110.263 164.814,109.981 164.579,108.868 164.472 C 107.906 164.380,107.597 164.185,107.755 163.772 C 107.876 163.458,107.771 163.200,107.521 163.200 C 107.271 163.200,107.178 163.089,107.314 162.952 C 108.006 162.260,105.882 161.270,103.338 161.098 C 103.084 161.081,102.961 160.845,103.065 160.575 C 103.169 160.304,102.869 159.814,102.399 159.484 C 101.769 159.043,101.683 158.822,102.072 158.646 C 102.362 158.515,102.195 158.508,101.700 158.631 C 101.205 158.753,100.800 158.682,100.800 158.471 C 100.800 158.261,100.575 158.097,100.300 158.107 C 98.557 158.172,97.928 157.965,98.145 157.400 C 98.282 157.042,98.148 156.800,97.811 156.800 C 97.501 156.800,97.119 156.592,96.962 156.338 C 96.791 156.063,96.851 155.985,97.111 156.145 C 97.349 156.292,97.676 156.185,97.836 155.907 C 97.997 155.628,97.991 155.524,97.823 155.674 C 97.655 155.825,97.041 155.764,96.459 155.537 C 95.876 155.310,94.688 155.039,93.817 154.935 C 91.778 154.690,91.649 154.593,91.780 153.398 C 91.879 152.500,91.583 152.213,90.700 152.353 C 90.535 152.379,90.400 152.265,90.400 152.100 C 90.400 151.935,89.949 151.774,89.398 151.742 C 88.847 151.710,88.082 151.342,87.698 150.923 C 87.314 150.505,87.161 150.400,87.357 150.691 C 87.553 150.981,87.599 151.334,87.459 151.474 C 87.072 151.861,85.600 150.370,85.600 149.590 C 85.600 149.203,85.296 148.905,84.900 148.907 C 82.767 148.915,82.321 148.782,82.543 148.204 C 82.985 147.052,81.134 145.809,78.807 145.695 C 76.323 145.574,76.450 145.641,76.309 144.375 C 76.152 142.969,75.698 142.614,73.889 142.486 C 72.564 142.392,69.085 140.400,70.246 140.400 C 70.415 140.400,70.218 140.155,69.808 139.855 C 69.398 139.556,68.774 139.386,68.420 139.479 C 67.432 139.737,65.903 138.260,66.514 137.637 C 66.896 137.248,66.872 137.170,66.400 137.271 C 66.070 137.342,65.831 137.218,65.868 136.997 C 65.905 136.775,65.455 136.581,64.868 136.566 C 62.697 136.512,60.460 135.910,60.644 135.430 C 60.821 134.969,59.498 133.120,59.030 133.174 C 56.249 133.491,54.802 133.146,54.540 132.104 C 54.156 130.575,53.462 130.000,52.002 130.000 C 50.883 130.000,50.777 129.902,51.031 129.103 C 51.287 128.295,51.248 128.262,50.635 128.771 C 50.261 129.081,49.986 129.170,50.025 128.968 C 50.204 128.023,49.953 127.532,49.400 127.745 C 49.060 127.875,48.800 127.754,48.800 127.466 C 48.800 127.150,48.164 126.919,47.129 126.858 C 45.364 126.754,44.025 125.687,44.934 125.109 C 45.372 124.830,45.040 124.714,44.145 124.834 C 44.004 124.853,43.746 124.637,43.571 124.354 C 43.393 124.065,42.348 123.799,41.188 123.747 C 38.806 123.641,38.920 123.704,38.740 122.400 C 38.534 120.915,37.448 119.056,36.510 118.584 C 36.057 118.356,35.441 117.972,35.143 117.732 C 34.338 117.086,24.894 117.204,24.343 117.868 M37.412 120.321 C 37.143 120.590,36.000 119.592,36.000 119.089 C 36.000 118.862,36.361 119.003,36.802 119.402 C 37.244 119.802,37.518 120.215,37.412 120.321 M39.415 146.209 C 39.439 147.470,39.923 147.949,41.650 148.414 C 42.715 148.700,43.198 149.029,43.065 149.376 C 42.788 150.096,43.560 150.790,44.314 150.501 C 44.755 150.332,44.837 150.417,44.600 150.800 C 44.359 151.190,44.447 151.268,44.922 151.085 C 45.281 150.948,45.657 150.969,45.759 151.133 C 45.860 151.297,46.551 151.411,47.295 151.386 C 48.342 151.351,48.746 151.551,49.086 152.271 C 49.408 152.953,49.405 153.200,49.073 153.200 C 48.825 153.200,49.061 153.507,49.597 153.883 C 50.536 154.541,51.016 154.636,53.947 154.748 C 55.057 154.791,55.259 154.932,55.096 155.554 C 54.885 156.361,56.161 157.733,57.200 157.815 C 58.819 157.944,59.034 158.057,59.091 158.809 C 59.130 159.336,58.986 159.518,58.676 159.332 C 58.398 159.165,58.428 159.328,58.749 159.723 C 59.343 160.456,59.802 160.651,59.400 160.000 C 59.044 159.424,59.846 159.507,60.471 160.111 C 60.762 160.391,61.720 160.679,62.600 160.749 C 64.542 160.905,64.920 161.109,64.636 161.850 C 64.334 162.636,65.647 163.847,66.825 163.869 C 70.778 163.942,70.901 163.971,70.684 164.800 C 70.569 165.240,70.649 165.600,70.861 165.600 C 71.073 165.600,71.144 165.768,71.017 165.972 C 70.715 166.461,71.464 166.902,72.760 166.998 C 74.774 167.147,74.887 167.196,74.647 167.821 C 74.516 168.162,74.575 168.339,74.777 168.214 C 74.979 168.089,75.265 168.182,75.413 168.421 C 75.560 168.659,75.942 168.754,76.261 168.632 C 76.580 168.509,76.744 168.567,76.625 168.759 C 76.288 169.305,77.515 170.121,78.902 170.273 C 80.221 170.417,81.049 171.199,80.345 171.634 C 80.100 171.785,80.200 171.991,80.592 172.142 C 80.954 172.281,81.163 172.537,81.055 172.711 C 80.947 172.886,81.161 173.064,81.529 173.108 C 83.192 173.306,85.448 173.542,85.943 173.570 C 86.241 173.586,86.392 173.844,86.278 174.141 C 86.026 174.798,87.473 176.112,88.590 176.240 C 89.036 176.291,90.105 176.348,90.967 176.367 C 92.185 176.393,92.827 176.979,91.667 177.006 C 91.520 177.009,91.175 177.155,90.900 177.330 C 90.609 177.515,90.400 177.460,90.400 177.200 C 90.400 176.954,90.217 176.866,89.993 177.004 C 89.770 177.142,89.683 177.410,89.800 177.600 C 89.917 177.790,89.823 178.062,89.590 178.206 C 89.358 178.350,89.277 178.812,89.411 179.234 C 89.624 179.907,89.432 180.008,87.827 180.067 C 86.822 180.103,85.685 180.148,85.300 180.167 C 84.915 180.185,84.362 180.470,84.070 180.800 C 83.682 181.240,83.619 181.250,83.832 180.838 C 84.029 180.460,83.967 180.373,83.642 180.574 C 83.274 180.802,83.271 181.003,83.630 181.436 C 83.966 181.841,83.972 182.000,83.649 182.000 C 83.402 182.000,83.200 182.270,83.200 182.600 C 83.200 183.127,81.000 183.503,79.470 183.237 C 79.289 183.206,79.255 183.365,79.394 183.590 C 79.533 183.816,79.446 184.000,79.200 184.000 C 78.954 184.000,78.867 184.184,79.006 184.410 C 79.145 184.635,79.021 184.770,78.730 184.710 C 78.438 184.649,78.255 184.855,78.323 185.168 C 78.428 185.658,78.350 185.658,77.746 185.168 C 77.191 184.717,77.114 184.713,77.374 185.145 C 77.842 185.922,76.911 186.387,74.873 186.394 C 73.187 186.400,70.042 184.091,70.760 183.374 C 70.892 183.242,70.820 183.170,70.600 183.214 C 69.048 183.527,66.800 183.142,66.800 182.563 C 66.800 181.658,65.528 180.206,64.700 180.167 C 64.315 180.148,63.280 180.103,62.400 180.067 C 61.089 180.012,60.800 179.856,60.800 179.200 C 60.800 177.875,59.381 176.800,57.634 176.800 C 56.284 176.800,55.892 176.579,54.798 175.198 C 54.101 174.317,53.381 173.688,53.198 173.801 C 52.451 174.263,50.707 173.198,50.914 172.407 C 51.034 171.947,50.930 171.663,50.659 171.714 C 50.407 171.761,50.232 171.614,50.271 171.386 C 50.311 171.158,50.041 170.947,49.671 170.918 C 45.926 170.617,44.576 170.035,44.992 168.900 C 45.092 168.625,44.990 168.400,44.764 168.400 C 44.538 168.400,44.445 168.250,44.559 168.067 C 44.770 167.725,44.165 167.581,42.400 167.552 C 41.850 167.543,40.955 167.145,40.412 166.668 C 39.818 166.146,39.638 166.079,39.961 166.500 C 40.413 167.090,40.409 167.200,39.932 167.200 C 39.620 167.200,39.193 166.615,38.983 165.900 C 38.669 164.835,38.372 164.578,37.342 164.478 C 35.726 164.321,35.737 164.391,35.632 153.958 C 35.572 148.088,35.682 145.396,35.990 145.206 C 36.906 144.640,39.399 145.370,39.415 146.209 M76.850 211.800 C 76.961 214.022,76.773 213.848,79.187 213.950 C 80.068 213.987,80.315 214.155,80.145 214.600 C 80.018 214.930,80.122 215.200,80.375 215.200 C 80.628 215.200,80.782 215.497,80.718 215.859 C 80.597 216.535,80.909 216.632,84.145 216.921 C 85.658 217.056,86.367 217.693,86.574 219.104 C 86.665 219.723,87.215 219.948,89.200 220.180 C 89.750 220.244,90.346 220.320,90.524 220.348 C 90.702 220.377,90.734 220.583,90.596 220.807 C 90.458 221.030,90.222 221.138,90.072 221.045 C 89.923 220.953,89.760 221.425,89.712 222.094 C 89.598 223.664,89.627 223.645,87.239 223.729 C 86.119 223.768,85.202 223.965,85.201 224.167 C 85.201 224.368,85.086 224.420,84.947 224.281 C 84.436 223.769,83.200 224.853,83.200 225.814 C 83.200 226.695,83.032 226.800,81.624 226.800 C 80.757 226.800,79.924 226.999,79.774 227.243 C 79.577 227.560,79.416 227.550,79.204 227.207 C 78.996 226.870,78.584 227.052,77.818 227.818 C 76.986 228.650,76.852 228.985,77.253 229.233 C 77.916 229.642,77.074 230.011,75.138 230.159 C 74.402 230.215,73.796 230.427,73.791 230.630 C 73.763 231.737,71.649 233.200,70.077 233.200 C 68.347 233.200,67.043 234.325,67.473 235.446 C 67.614 235.815,67.370 236.017,66.743 236.051 C 66.224 236.079,65.350 236.177,64.800 236.269 C 64.250 236.361,63.485 236.467,63.100 236.504 C 62.715 236.541,62.400 236.723,62.400 236.909 C 62.400 237.095,62.222 237.137,62.005 237.003 C 61.778 236.863,61.711 237.023,61.847 237.379 C 61.978 237.721,61.892 238.000,61.655 238.000 C 61.419 238.000,61.329 238.270,61.455 238.600 C 61.605 238.990,61.426 239.224,60.943 239.268 C 60.534 239.306,59.930 239.377,59.600 239.426 C 59.270 239.475,58.813 239.534,58.585 239.557 C 58.357 239.581,58.142 239.978,58.107 240.440 C 58.029 241.478,56.927 242.355,55.600 242.435 C 55.050 242.468,54.150 242.519,53.600 242.548 C 52.556 242.602,51.814 243.669,51.965 244.900 C 52.034 245.469,51.708 245.612,50.225 245.667 C 49.221 245.703,48.085 245.748,47.700 245.767 C 46.703 245.814,45.723 246.877,45.922 247.695 C 46.111 248.475,45.372 248.870,43.589 248.943 C 42.739 248.978,42.400 249.192,42.400 249.696 C 42.400 250.083,42.175 250.355,41.900 250.300 C 41.625 250.245,41.445 250.425,41.500 250.700 C 41.555 250.975,41.465 251.171,41.300 251.135 C 41.135 251.100,40.474 251.287,39.831 251.552 C 39.188 251.816,38.429 251.943,38.144 251.834 C 37.859 251.724,37.517 251.810,37.385 252.024 C 37.253 252.238,36.949 252.292,36.711 252.145 C 36.461 251.991,36.391 252.061,36.545 252.311 C 36.692 252.549,36.647 252.847,36.444 252.973 C 36.241 253.098,36.169 253.561,36.284 254.000 C 36.399 254.440,36.313 254.800,36.093 254.800 C 35.873 254.800,35.599 254.440,35.484 254.000 C 35.369 253.560,35.393 253.200,35.537 253.199 C 35.682 253.199,35.820 249.408,35.843 244.776 C 35.889 235.996,35.979 235.527,37.655 235.403 C 38.257 235.359,38.559 235.057,38.603 234.455 C 38.703 233.103,39.489 232.554,41.500 232.431 C 41.775 232.414,41.979 232.265,41.953 232.100 C 41.629 230.051,41.956 229.699,44.351 229.526 C 46.787 229.350,47.685 228.823,48.174 227.281 C 48.377 226.643,48.770 226.400,49.598 226.400 C 50.228 226.400,50.993 226.150,51.299 225.844 C 51.717 225.426,52.048 225.394,52.628 225.715 C 53.327 226.101,53.346 226.076,52.832 225.448 C 52.342 224.849,52.342 224.772,52.832 224.877 C 53.151 224.946,53.346 224.751,53.277 224.432 C 53.175 223.960,53.261 223.952,53.787 224.389 C 54.324 224.835,54.381 224.815,54.166 224.257 C 53.925 223.627,54.360 223.435,55.900 223.493 C 56.175 223.503,56.400 223.340,56.400 223.132 C 56.400 222.923,56.568 222.856,56.772 222.983 C 57.206 223.251,57.725 222.532,57.897 221.424 C 58.058 220.390,58.022 220.409,59.972 220.333 C 60.910 220.296,61.923 220.020,62.224 219.719 C 62.525 219.418,62.868 219.178,62.986 219.186 C 63.781 219.239,63.903 219.117,63.728 218.445 C 63.495 217.556,64.104 217.103,65.782 216.915 C 69.365 216.513,69.401 216.501,69.273 215.807 C 69.204 215.429,69.322 215.228,69.536 215.360 C 69.761 215.500,69.837 215.264,69.716 214.801 C 69.539 214.123,69.703 214.000,70.782 214.000 C 72.019 214.000,73.340 213.121,73.433 212.235 C 73.458 211.996,73.506 211.575,73.539 211.300 C 73.671 210.218,76.795 210.690,76.850 211.800 " stroke="none" fill="#fc5304" fill-rule="evenodd"></path><path id="path1" d="M143.029 146.229 C 142.122 147.136,142.062 249.384,142.967 250.624 C 143.499 251.351,144.183 251.408,153.839 251.531 C 166.336 251.690,166.680 251.644,167.029 249.785 C 167.393 247.844,170.400 247.607,170.400 249.520 C 170.400 251.572,170.576 251.604,181.580 251.553 C 193.615 251.497,193.994 251.444,194.800 249.709 C 195.306 248.620,195.619 248.415,196.800 248.403 C 198.615 248.384,200.060 247.634,200.676 246.392 C 201.033 245.671,201.582 245.345,202.684 245.200 C 204.046 245.020,204.238 244.848,204.571 243.500 C 204.891 242.204,205.096 242.000,206.080 242.000 C 207.461 242.000,208.000 240.877,208.000 237.999 C 208.000 236.093,208.028 236.048,209.300 235.925 L 210.600 235.800 210.800 232.800 L 211.000 229.800 212.400 229.600 L 213.800 229.400 213.800 213.361 C 213.800 196.287,213.790 196.197,211.871 195.924 C 211.112 195.816,210.974 195.487,210.800 193.361 C 210.586 190.751,209.959 189.600,208.751 189.600 C 208.168 189.600,208.000 189.305,208.000 188.280 C 208.000 186.673,207.393 186.000,205.945 186.000 C 205.003 186.000,204.833 185.819,204.725 184.700 C 204.611 183.513,204.469 183.389,203.100 183.276 C 201.826 183.170,201.600 183.010,201.600 182.209 C 201.600 180.188,201.307 180.000,198.157 180.000 L 195.200 180.000 195.200 178.400 L 195.200 176.800 190.064 176.800 C 184.974 176.800,184.924 176.791,184.473 175.800 C 184.069 174.915,183.772 174.800,181.878 174.800 C 180.114 174.800,179.575 174.975,178.800 175.800 C 177.902 176.756,177.655 176.800,173.179 176.800 C 168.328 176.800,167.899 176.936,167.489 178.600 C 167.381 179.040,167.272 172.257,167.246 163.526 C 167.219 154.304,167.037 147.222,166.810 146.626 L 166.420 145.600 155.038 145.600 C 145.225 145.600,143.571 145.687,143.029 146.229 M253.029 175.029 C 252.683 175.374,252.400 175.914,252.400 176.229 C 252.400 176.693,251.467 176.800,247.400 176.800 L 242.400 176.800 242.400 178.400 C 242.400 180.838,239.325 180.932,239.124 178.500 L 239.000 177.000 228.293 176.893 L 217.585 176.787 217.182 177.693 C 216.961 178.192,216.360 179.173,215.847 179.874 C 214.292 181.999,214.757 202.020,216.411 204.123 C 217.709 205.773,217.615 222.907,216.300 224.306 C 214.252 226.485,214.534 248.000,216.611 248.000 C 216.879 248.000,217.212 248.712,217.351 249.582 C 217.684 251.667,217.874 251.696,230.033 251.532 C 240.705 251.388,241.328 251.262,241.747 249.164 C 241.886 248.469,242.000 237.482,242.000 224.750 L 242.000 201.600 242.967 201.600 C 244.704 201.600,245.200 201.191,245.200 199.757 L 245.200 198.400 248.376 198.400 L 251.552 198.400 251.676 199.900 C 251.793 201.316,251.883 201.407,253.288 201.523 L 254.776 201.647 254.888 226.004 C 254.977 245.338,255.107 250.468,255.520 250.880 C 256.299 251.659,277.998 251.632,278.939 250.851 C 279.541 250.351,279.600 248.116,279.600 225.975 L 279.600 201.648 281.100 201.524 C 282.519 201.407,282.607 201.319,282.724 199.900 L 282.848 198.400 285.980 198.400 L 289.111 198.400 289.371 199.785 C 289.594 200.975,289.825 201.206,291.015 201.429 L 292.400 201.689 292.440 224.945 C 292.483 250.098,292.470 249.914,294.217 250.800 C 295.641 251.522,315.369 251.898,316.400 251.222 C 317.006 250.825,317.584 192.464,317.005 190.100 C 316.830 189.384,316.504 189.200,315.410 189.200 L 314.035 189.200 313.918 186.300 L 313.800 183.400 312.323 183.277 C 310.935 183.162,310.838 183.065,310.723 181.677 C 310.608 180.297,310.500 180.187,309.084 180.000 C 307.982 179.855,307.433 179.529,307.076 178.808 C 306.258 177.157,304.998 176.812,299.764 176.806 C 295.011 176.800,294.921 176.783,294.478 175.811 C 293.647 173.987,290.616 173.998,290.158 175.827 C 289.916 176.789,289.860 176.800,285.189 176.800 C 280.064 176.800,278.452 177.289,277.629 179.095 C 277.303 179.812,276.890 180.000,275.642 180.000 C 274.288 180.000,274.010 180.154,273.665 181.100 C 273.320 182.044,273.259 182.078,273.232 181.343 C 273.191 180.254,272.503 180.000,269.591 180.000 L 267.248 180.000 267.124 178.500 L 267.000 177.000 262.100 176.888 C 258.224 176.799,257.200 176.659,257.200 176.216 C 257.200 175.295,256.018 174.400,254.800 174.400 C 254.171 174.400,253.374 174.683,253.029 175.029 M353.200 175.200 C 352.760 175.640,352.400 176.180,352.400 176.400 C 352.400 176.650,350.014 176.800,346.043 176.800 C 339.184 176.800,339.200 176.795,339.200 179.015 C 339.200 179.917,339.053 179.971,336.300 180.082 L 333.400 180.200 333.276 181.700 C 333.155 183.158,333.108 183.200,331.576 183.200 C 330.042 183.200,330.000 183.237,330.000 184.600 C 330.000 185.859,329.889 186.001,328.900 186.006 C 327.324 186.015,326.883 186.422,326.733 188.003 C 326.630 189.082,326.402 189.428,325.729 189.524 C 324.411 189.712,323.948 190.538,323.714 193.116 C 323.513 195.329,323.430 195.483,322.251 195.831 C 320.508 196.345,320.501 196.415,320.447 213.913 C 320.403 228.156,320.449 229.243,321.100 229.483 C 322.640 230.049,323.555 231.546,323.679 233.698 L 323.800 235.800 325.300 235.924 L 326.800 236.048 326.800 238.544 C 326.800 241.318,327.211 242.000,328.880 242.000 C 329.799 242.000,330.000 242.174,330.000 242.971 C 330.000 244.585,330.995 245.200,333.604 245.200 L 335.952 245.200 336.076 246.700 L 336.200 248.200 339.300 248.317 L 342.400 248.434 342.400 249.774 C 342.400 251.628,342.201 251.600,355.245 251.600 C 365.518 251.600,366.853 251.527,367.072 250.956 C 367.714 249.283,369.030 248.448,371.224 248.324 L 373.400 248.200 373.524 246.700 L 373.648 245.200 375.996 245.200 C 378.585 245.200,379.600 244.585,379.600 243.016 C 379.600 242.279,379.878 242.037,380.956 241.835 C 382.488 241.547,382.786 240.909,382.795 237.900 C 382.800 236.156,382.880 236.000,383.771 236.000 C 385.014 236.000,386.000 235.014,386.000 233.771 C 386.000 232.961,386.197 232.800,387.186 232.800 C 388.910 232.800,389.200 231.887,389.200 226.455 C 389.200 219.851,390.324 220.400,376.804 220.400 C 364.216 220.400,364.400 220.373,364.400 222.243 C 364.400 223.412,364.266 223.600,363.433 223.600 C 361.696 223.600,361.200 224.009,361.200 225.443 C 361.200 226.719,361.119 226.800,359.843 226.800 C 358.409 226.800,358.000 227.296,358.000 229.033 C 358.000 229.975,357.918 230.000,354.800 230.000 C 351.682 230.000,351.600 229.975,351.600 229.033 C 351.600 227.296,351.191 226.800,349.757 226.800 C 348.519 226.800,348.400 226.696,348.400 225.614 C 348.400 224.353,347.512 223.600,346.026 223.600 C 345.214 223.600,345.200 223.435,345.200 214.022 L 345.200 204.444 346.288 203.922 C 347.643 203.272,348.386 201.852,348.394 199.900 L 348.400 198.400 354.782 198.400 L 361.165 198.400 361.282 201.300 L 361.400 204.200 363.100 204.577 C 364.035 204.784,364.800 205.176,364.800 205.448 C 364.800 207.329,366.365 207.600,377.225 207.600 C 389.989 207.600,389.419 207.993,389.124 199.400 L 389.000 195.800 387.523 195.677 C 386.135 195.562,386.038 195.465,385.923 194.077 C 385.807 192.685,385.714 192.593,384.300 192.476 L 382.800 192.352 382.800 189.590 C 382.800 186.651,382.370 186.000,380.426 186.000 C 379.749 186.000,379.600 185.748,379.600 184.600 C 379.600 183.237,379.558 183.200,378.024 183.200 C 376.492 183.200,376.445 183.158,376.324 181.700 L 376.200 180.200 373.300 180.082 C 370.547 179.971,370.400 179.917,370.400 179.015 C 370.400 176.795,370.416 176.800,363.557 176.800 C 359.586 176.800,357.200 176.650,357.200 176.400 C 357.200 175.706,355.633 174.400,354.800 174.400 C 354.360 174.400,353.640 174.760,353.200 175.200 M182.100 176.682 C 181.605 176.778,180.795 176.778,180.300 176.682 C 179.805 176.587,180.210 176.509,181.200 176.509 C 182.190 176.509,182.595 176.587,182.100 176.682 M183.200 200.000 C 183.200 201.557,183.237 201.600,184.576 201.600 C 185.877 201.600,185.958 201.681,186.076 203.100 C 186.193 204.519,186.281 204.607,187.700 204.724 L 189.200 204.848 189.200 213.019 L 189.200 221.190 187.601 222.695 C 186.372 223.851,186.001 224.501,186.001 225.500 L 186.000 226.800 183.629 226.800 C 180.994 226.800,180.000 227.410,180.000 229.029 C 180.000 229.976,179.922 230.000,176.800 230.000 C 173.682 230.000,173.600 229.975,173.600 229.033 C 173.600 227.233,173.204 226.800,171.557 226.800 C 170.199 226.800,170.000 226.682,170.000 225.880 C 170.000 224.708,169.292 224.000,168.120 224.000 L 167.200 224.000 167.200 212.857 L 167.200 201.714 169.659 201.457 C 172.444 201.166,173.200 200.716,173.200 199.351 C 173.200 198.400,173.202 198.400,178.200 198.400 L 183.200 198.400 183.200 200.000 " stroke="none" fill="#444344" fill-rule="evenodd"></path><path id="path2" d="" stroke="none" fill="#1004824" fill-rule="evenodd"></path><path id="path3" d="" stroke="none" fill="#744824" fill-rule="evenodd"></path><path id="path4" d="M180.300 176.682 C 180.795 176.778,181.605 176.778,182.100 176.682 C 182.595 176.587,182.190 176.509,181.200 176.509 C 180.210 176.509,179.805 176.587,180.300 176.682 " stroke="none" fill="#444848" fill-rule="evenodd"></path></g></svg>